<svg xmlns="http://www.w3.org/2000/svg" xmlns:xlink="http://www.w3.org/1999/xlink" width="150" height="110" viewBox="0 0 150 110">
  <defs>
    <clipPath id="clip-AppCenter-Web-Icon-Contacto-Email_Blanco">
      <rect width="150" height="110"/>
    </clipPath>
  </defs>
  <g id="AppCenter-Web-Icon-Contacto-Email_Blanco" data-name="AppCenter-Web-Icon-Contacto-Email–Blanco" clip-path="url(#clip-AppCenter-Web-Icon-Contacto-Email_Blanco)">
    <g id="_546394" data-name="546394" transform="matrix(0.966, -0.259, 0.259, 0.966, 10, 33.408)">
      <g id="Grupo_10251" data-name="Grupo 10251" transform="translate(0 0)">
        <path id="Trazado_6789" data-name="Trazado 6789" d="M107.8,0H5.827A5.844,5.844,0,0,0,0,5.827v64.1a5.844,5.844,0,0,0,5.827,5.827H107.8a5.844,5.844,0,0,0,5.827-5.827V5.827A5.844,5.844,0,0,0,107.8,0ZM105.61,4.37,60.164,38.457a6.092,6.092,0,0,1-6.7,0L8.013,4.37ZM81.334,40.706,106.1,71.3c.025.031.055.054.082.082H7.444c.026-.029.057-.051.082-.082L32.289,40.706a2.186,2.186,0,0,0-3.4-2.75L4.37,68.248V7.1L50.839,41.953a10.43,10.43,0,0,0,11.945,0L109.253,7.1V68.248L84.731,37.956a2.185,2.185,0,0,0-3.4,2.75Z" fill="#fff" stroke="#fff" stroke-width="1.5"/>
      </g>
    </g>
  </g>
</svg>
